<?xml version="1.0" standalone="no"?>
<!DOCTYPE svg PUBLIC "-//W3C//DTD SVG 20010904//EN"
 "http://www.w3.org/TR/2001/REC-SVG-20010904/DTD/svg10.dtd">
<svg version="1.0" xmlns="http://www.w3.org/2000/svg"
 width="512.000000pt" height="512.000000pt" viewBox="0 0 512.000000 512.000000"
 preserveAspectRatio="xMidYMid meet">
<metadata>
Created by potrace 1.14, written by Peter Selinger 2001-2017
</metadata>
<g transform="translate(0.000000,512.000000) scale(0.100000,-0.100000)"
fill="#000000" stroke="none">
<path d="M1325 4429 c-98 -12 -279 -59 -383 -100 -191 -76 -477 -242 -690
-401 -133 -100 -162 -130 -162 -165 0 -43 34 -81 78 -88 180 -30 414 -84 430
-100 2 -2 -45 -52 -106 -112 -60 -59 -137 -145 -170 -191 -358 -487 -419
-1116 -162 -1660 222 -468 643 -793 1165 -899 127 -25 461 -25 590 1 109 22
249 66 357 112 l80 34 93 -35 c418 -156 844 -173 1269 -50 505 146 955 524
1195 1002 198 397 255 839 166 1281 -32 157 -52 195 -122 231 -52 27 -101 13
-934 -264 -455 -151 -832 -275 -837 -275 -5 0 -17 28 -26 63 -22 78 -118 280
-178 372 -87 135 -214 279 -324 366 l-64 50 55 107 c29 59 79 145 109 192 62
93 70 132 36 168 -19 21 -44 27 -80 22 -8 -1 -42 -21 -75 -45 -33 -23 -78 -51
-100 -63 -46 -23 -162 -58 -218 -66 -36 -5 -38 -3 -61 43 -30 59 -132 196
-177 237 -198 182 -471 266 -754 233z m277 -173 c140 -27 255 -85 359 -183 45
-42 119 -133 119 -146 0 -8 -129 27 -240 67 -167 60 -250 76 -410 82 -174 7
-329 -9 -587 -62 -98 -20 -189 -39 -203 -41 -37 -7 95 70 245 143 267 128 519
178 717 140z m-52 -360 c47 -8 162 -39 255 -69 94 -30 185 -58 203 -62 l34 -7
-28 -29 c-41 -42 -165 -126 -230 -155 -118 -52 -199 -68 -339 -68 -203 1 -303
25 -570 139 -93 40 -201 82 -240 95 -38 12 -74 25 -79 28 -11 6 72 27 284 72
305 66 539 84 710 56z m923 -156 c-9 -22 -19 -40 -22 -40 -3 1 -26 12 -51 25
-47 25 -47 26 25 43 65 16 65 16 48 -28z m-156 -162 c29 -17 56 -34 59 -40 4
-6 -2 -37 -11 -69 l-18 -59 -43 0 c-34 0 -47 -5 -63 -26 -12 -15 -21 -32 -21
-39 0 -7 -11 -16 -25 -19 -52 -13 -76 -97 -39 -137 9 -10 41 -26 70 -36 51
-16 53 -18 74 -75 27 -73 56 -95 108 -82 28 7 41 18 54 43 10 20 30 40 48 47
61 26 64 111 4 146 -19 11 -34 23 -34 26 0 15 44 158 51 166 10 11 192 -170
247 -246 67 -92 131 -202 171 -295 39 -92 67 -180 59 -188 -2 -3 -366 -121
-807 -264 -442 -142 -815 -267 -829 -278 -43 -32 -65 -69 -69 -120 -4 -41 1
-64 35 -143 156 -363 431 -690 744 -883 37 -23 68 -45 68 -48 0 -7 -152 -54
-250 -76 -58 -14 -123 -18 -285 -18 -194 0 -218 2 -315 27 -142 36 -255 78
-359 134 -388 210 -650 562 -743 997 -28 136 -31 396 -5 537 63 339 252 658
514 868 l86 69 91 -39 c198 -86 355 -120 556 -122 149 -1 239 15 370 65 112
43 266 144 338 222 l24 25 46 -20 c26 -12 71 -34 99 -50z m2587 -523 c93 -405
38 -841 -155 -1217 -256 -497 -721 -843 -1278 -950 -95 -18 -152 -22 -316 -22
-202 -1 -262 6 -433 46 -469 110 -899 436 -1141 865 -48 87 -114 233 -107 240
2 3 38 15 80 28 l75 23 65 -131 c84 -169 175 -295 306 -427 241 -241 533 -392
880 -456 131 -25 408 -25 544 0 665 120 1182 623 1321 1286 39 187 39 448 -1
638 -9 42 -17 83 -18 91 -1 14 144 72 155 62 4 -3 14 -37 23 -76z m-318 -140
c25 -125 25 -376 1 -505 -10 -53 -22 -102 -27 -110 -8 -13 -39 -5 -197 47
-103 34 -322 105 -486 158 l-298 97 3 51 3 50 485 162 c332 111 487 158 492
151 3 -6 15 -52 24 -101z m-1182 -302 c-15 -59 -76 -133 -139 -166 -56 -30
-164 -30 -221 0 -39 21 -71 50 -63 57 9 7 395 134 412 135 14 1 16 -4 11 -26z
m-554 -236 c0 -12 -610 -847 -620 -847 -4 0 -45 34 -89 76 -75 71 -188 210
-238 294 -37 62 -103 198 -103 212 0 9 161 65 498 174 l497 161 27 -31 c15
-17 28 -34 28 -39z m1223 -112 c230 -74 420 -135 422 -135 25 0 -76 -203 -161
-321 -67 -94 -252 -285 -263 -273 -5 5 -140 191 -301 414 -161 223 -297 410
-303 417 -6 8 0 24 18 47 l26 34 72 -23 c40 -14 260 -85 490 -160z m-436 -417
c162 -223 295 -410 295 -415 0 -4 -48 -34 -108 -65 -164 -86 -338 -139 -537
-162 l-47 -6 2 532 3 531 35 13 c30 10 37 9 48 -5 7 -9 146 -199 309 -423z
m-598 426 l31 -6 0 -535 0 -534 -52 6 c-224 26 -453 99 -600 191 l-48 30 311
427 c171 235 314 427 319 427 4 0 22 -3 39 -6z"/>
<path d="M370 2535 c-52 -55 -18 -139 56 -139 73 0 111 88 59 139 -33 34 -83
34 -115 0z"/>
<path d="M369 2191 c-34 -35 -35 -42 -10 -146 61 -254 181 -465 365 -643 107
-103 210 -176 343 -240 114 -55 155 -59 189 -18 52 59 27 103 -90 159 -237
114 -410 274 -529 487 -45 81 -92 204 -108 278 -17 85 -37 128 -65 141 -40 18
-63 13 -95 -18z"/>
</g>
</svg>
